<?xml version="1.0" standalone="no"?>
<!DOCTYPE svg PUBLIC "-//W3C//DTD SVG 20010904//EN"
 "http://www.w3.org/TR/2001/REC-SVG-20010904/DTD/svg10.dtd">
<svg version="1.0" xmlns="http://www.w3.org/2000/svg"
 width="300.000000pt" height="300.000000pt" viewBox="0 0 300.000000 300.000000"
 preserveAspectRatio="xMidYMid meet">
<g transform="translate(0.000000,300.000000) scale(0.100000,-0.100000)"
fill="#000000" stroke="none">
<path fill="#4876EE" stroke="#4876EE" stroke-width="5.5mm" d="M1513 2529 c-7 -7 -13 -23 -13 -36 l0 -23 -263 0 -263 0 -73 -74
c-68 -69 -75 -73 -100 -63 -38 14 -79 1 -118 -38 -26 -26 -33 -41 -33 -73 0
-117 140 -169 215 -80 24 28 27 39 23 85 -5 52 -4 52 51 107 l56 55 254 1 255
1 0 -33 c0 -30 -3 -33 -27 -30 -30 4 -48 -19 -67 -84 -11 -35 -19 -44 -60 -61
l-47 -20 -57 29 -57 29 -70 -67 c-38 -37 -69 -73 -69 -81 0 -8 11 -36 25 -63
14 -27 25 -52 25 -55 0 -3 -134 -5 -299 -5 -239 0 -301 3 -310 14 -6 8 -9 31
-5 57 14 116 -127 184 -206 99 -47 -51 -46 -115 2 -168 28 -29 82 -44 116 -31
22 8 29 6 46 -16 l21 -25 303 -1 c166 0 302 -4 302 -8 0 -4 -25 -14 -55 -21
-30 -7 -60 -19 -66 -26 -5 -7 -9 -53 -7 -110 l3 -99 57 -15 c31 -8 60 -18 64
-22 4 -5 -116 -8 -268 -8 l-275 0 -22 -24 c-18 -20 -29 -23 -65 -19 -77 9
-136 -42 -136 -117 0 -92 96 -148 180 -105 41 21 63 68 57 121 -3 26 0 47 7
53 6 5 134 12 284 16 303 8 290 11 247 -60 -14 -22 -25 -47 -25 -55 0 -9 31
-47 70 -85 l70 -69 56 27 c55 27 55 27 103 10 46 -16 49 -20 66 -72 19 -61 28
-71 65 -71 24 0 26 -3 22 -35 l-4 -35 -246 0 -246 0 -62 61 c-59 59 -61 62
-57 103 9 78 -43 136 -119 136 -90 -1 -145 -98 -103 -180 21 -41 68 -63 121
-57 41 4 44 3 110 -64 l68 -69 268 0 268 0 0 -33 c0 -20 7 -40 18 -49 38 -32
700 -438 715 -438 9 0 21 8 26 19 8 15 91 239 183 493 l10 27 145 3 c120 3
148 6 156 19 7 12 -24 65 -142 242 l-151 227 0 155 c0 103 -5 182 -16 233 -62
299 -261 536 -529 629 -71 24 -97 28 -235 31 -116 3 -158 0 -167 -9z m371 -93
c213 -72 385 -250 460 -476 33 -100 46 -204 46 -366 l0 -134 130 -195 130
-194 -127 -3 -128 -3 -88 -245 c-49 -135 -90 -251 -93 -259 -4 -12 -7 -11 -22
1 -9 8 -151 97 -314 199 l-298 184 0 87 0 87 33 3 c30 3 33 7 52 64 19 58 22
62 67 78 47 16 48 16 97 -9 28 -14 55 -25 62 -25 19 0 139 122 139 142 0 10
-11 41 -25 68 l-25 48 20 45 c18 41 26 47 78 65 l57 19 3 106 3 106 -63 19
c-50 16 -64 24 -69 44 -3 13 -12 34 -18 47 -10 18 -8 29 13 68 14 25 26 53 26
63 0 9 -31 47 -69 84 l-70 67 -57 -29 -57 -29 -48 20 c-43 18 -49 25 -60 66
-15 59 -37 84 -66 78 -22 -4 -23 -2 -23 67 l0 71 116 -3 c91 -2 131 -7 188
-26z m-1074 -196 c27 -50 -32 -92 -73 -52 -18 18 -19 25 -9 47 15 32 66 35 82
5z m798 -44 c18 -53 17 -52 108 -91 l61 -27 53 27 52 26 35 -35 35 -35 -28
-49 -28 -50 28 -63 c39 -93 38 -91 92 -109 l49 -17 3 -49 3 -50 -56 -18 c-32
-10 -59 -25 -62 -34 -3 -9 -17 -43 -31 -75 l-25 -59 26 -53 26 -52 -35 -34
-34 -33 -53 26 c-52 25 -52 25 -92 7 -22 -10 -56 -25 -75 -32 -30 -12 -38 -22
-53 -69 l-17 -54 -48 -1 -48 -1 -20 56 c-19 55 -20 56 -89 84 -84 34 -83 34
-140 6 l-45 -22 -34 33 -35 34 27 53 26 53 -21 48 c-11 26 -26 60 -31 75 -9
20 -24 31 -67 44 l-56 18 3 49 3 50 53 17 c29 10 54 19 56 21 2 2 11 28 20 56
10 29 22 55 27 58 16 10 10 49 -15 92 l-25 42 36 36 36 36 49 -26 49 -27 57
25 c31 14 66 28 78 31 14 4 26 23 38 62 l17 55 51 -3 50 -3 16 -49z m-1210
-128 c28 -28 7 -78 -33 -78 -27 0 -45 18 -45 45 0 27 18 45 45 45 12 0 26 -5
33 -12z m712 -173 c-9 -23 -13 -25 -25 -15 -21 17 -19 25 8 37 28 13 30 12 17
-22z m0 -346 c14 -26 11 -29 -17 -18 -15 5 -21 14 -17 24 8 21 21 19 34 -6z
m-660 -109 c24 -24 24 -29 4 -58 -18 -26 -41 -28 -66 -5 -24 22 -23 49 4 67
29 20 34 20 58 -4z m348 -176 c26 -18 28 -41 5 -66 -22 -24 -49 -23 -67 4 -20
29 -20 34 4 58 24 24 29 24 58 4z"/>
<path fill="#4876EE" stroke="#4876EE" stroke-width="5.5mm" d="M1456 1965 c-180 -64 -229 -290 -94 -426 108 -108 301 -90 385 35 41
60 57 117 50 178 -19 161 -189 267 -341 213z m129 -66 c92 -26 140 -94 133
-190 -9 -124 -132 -201 -245 -154 -48 20 -71 41 -94 87 -22 44 -25 105 -5 151
16 40 77 95 114 103 15 3 32 7 37 9 16 6 18 5 60 -6z"/>
</g>
</svg>
